<svg width="150" height="150" viewBox="0 0 150 150" fill="none" xmlns="http://www.w3.org/2000/svg">
<path d="M126.562 29.2969H101.953V23.4375C101.953 20.0187 100.595 16.7399 98.1776 14.3225C95.7601 11.905 92.4813 10.5469 89.0625 10.5469H60.9375C57.5187 10.5469 54.2399 11.905 51.8225 14.3225C49.405 16.7399 48.0469 20.0187 48.0469 23.4375V29.2969H23.4375C22.5051 29.2969 21.6109 29.6673 20.9516 30.3266C20.2923 30.9859 19.9219 31.8801 19.9219 32.8125C19.9219 33.7449 20.2923 34.6391 20.9516 35.2984C21.6109 35.9577 22.5051 36.3281 23.4375 36.3281H29.2969V121.875C29.2969 124.051 30.1611 126.137 31.6995 127.675C33.2379 129.214 35.3244 130.078 37.5 130.078H112.5C114.676 130.078 116.762 129.214 118.3 127.675C119.839 126.137 120.703 124.051 120.703 121.875V36.3281H126.562C127.495 36.3281 128.389 35.9577 129.048 35.2984C129.708 34.6391 130.078 33.7449 130.078 32.8125C130.078 31.8801 129.708 30.9859 129.048 30.3266C128.389 29.6673 127.495 29.2969 126.562 29.2969ZM55.0781 23.4375C55.0781 21.8835 55.6954 20.3931 56.7943 19.2943C57.8931 18.1955 59.3835 17.5781 60.9375 17.5781H89.0625C90.6165 17.5781 92.1069 18.1955 93.2057 19.2943C94.3046 20.3931 94.9219 21.8835 94.9219 23.4375V29.2969H55.0781V23.4375ZM113.672 121.875C113.672 122.186 113.548 122.484 113.329 122.704C113.109 122.923 112.811 123.047 112.5 123.047H37.5C37.1892 123.047 36.8911 122.923 36.6714 122.704C36.4516 122.484 36.3281 122.186 36.3281 121.875V36.3281H113.672V121.875ZM64.4531 60.9375V98.4375C64.4531 99.3699 64.0827 100.264 63.4234 100.923C62.7641 101.583 61.8699 101.953 60.9375 101.953C60.0051 101.953 59.1109 101.583 58.4516 100.923C57.7923 100.264 57.4219 99.3699 57.4219 98.4375V60.9375C57.4219 60.0051 57.7923 59.1109 58.4516 58.4516C59.1109 57.7923 60.0051 57.4219 60.9375 57.4219C61.8699 57.4219 62.7641 57.7923 63.4234 58.4516C64.0827 59.1109 64.4531 60.0051 64.4531 60.9375ZM92.5781 60.9375V98.4375C92.5781 99.3699 92.2077 100.264 91.5484 100.923C90.8891 101.583 89.9949 101.953 89.0625 101.953C88.1301 101.953 87.2359 101.583 86.5766 100.923C85.9173 100.264 85.5469 99.3699 85.5469 98.4375V60.9375C85.5469 60.0051 85.9173 59.1109 86.5766 58.4516C87.2359 57.7923 88.1301 57.4219 89.0625 57.4219C89.9949 57.4219 90.8891 57.7923 91.5484 58.4516C92.2077 59.1109 92.5781 60.0051 92.5781 60.9375Z" fill="black" fill-opacity="0.25"/>
</svg>
